<svg class="nav__link__icon" width="24" height="24" viewBox="0 0 24 24" fill="none" xmlns="http://www.w3.org/2000/svg">
  <g clip-path="url(#clip0_701_3999)">
  <path d="M19.4 14.9993C19.2669 15.3009 19.2272 15.6355 19.286 15.9599C19.3448 16.2843 19.4995 16.5836 19.73 16.8193L19.79 16.8793C19.976 17.065 20.1235 17.2856 20.2241 17.5284C20.3248 17.7712 20.3766 18.0314 20.3766 18.2943C20.3766 18.5571 20.3248 18.8173 20.2241 19.0601C20.1235 19.3029 19.976 19.5235 19.79 19.7092C19.6043 19.8952 19.3837 20.0427 19.1409 20.1434C18.8981 20.244 18.6378 20.2958 18.375 20.2958C18.1122 20.2958 17.8519 20.244 17.6091 20.1434C17.3663 20.0427 17.1457 19.8952 16.96 19.7092L16.9 19.6492C16.6643 19.4187 16.365 19.2641 16.0406 19.2052C15.7162 19.1464 15.3816 19.1861 15.08 19.3192C14.7842 19.446 14.532 19.6565 14.3543 19.9248C14.1766 20.1931 14.0813 20.5074 14.08 20.8292V20.9992C14.08 21.5296 13.8693 22.0383 13.4942 22.4134C13.1191 22.7885 12.6104 22.9992 12.08 22.9992C11.5496 22.9992 11.0409 22.7885 10.6658 22.4134C10.2907 22.0383 10.08 21.5296 10.08 20.9992V20.9092C10.0723 20.5782 9.96512 20.2572 9.77251 19.9879C9.5799 19.7186 9.31074 19.5135 9 19.3992C8.69838 19.2661 8.36381 19.2264 8.03941 19.2852C7.71502 19.3441 7.41568 19.4987 7.18 19.7292L7.12 19.7892C6.93425 19.9752 6.71368 20.1227 6.47088 20.2234C6.22808 20.324 5.96783 20.3758 5.705 20.3758C5.44217 20.3758 5.18192 20.324 4.93912 20.2234C4.69632 20.1227 4.47575 19.9752 4.29 19.7892C4.10405 19.6035 3.95653 19.3829 3.85588 19.1401C3.75523 18.8973 3.70343 18.6371 3.70343 18.3743C3.70343 18.1114 3.75523 17.8512 3.85588 17.6084C3.95653 17.3656 4.10405 17.145 4.29 16.9593L4.35 16.8993C4.58054 16.6636 4.73519 16.3643 4.794 16.0399C4.85282 15.7155 4.81312 15.3809 4.68 15.0793C4.55324 14.7835 4.34276 14.5313 4.07447 14.3536C3.80618 14.176 3.49179 14.0806 3.17 14.0793H3C2.46957 14.0793 1.96086 13.8686 1.58579 13.4935C1.21071 13.1185 1 12.6098 1 12.0794C1 11.5489 1.21071 11.0402 1.58579 10.6652C1.96086 10.2901 2.46957 10.0794 3 10.0794H3.09C3.42099 10.0716 3.742 9.9645 4.0113 9.7719C4.28059 9.57929 4.48572 9.31013 4.6 8.9994C4.73312 8.69779 4.77282 8.36321 4.714 8.03882C4.65519 7.71443 4.50054 7.4151 4.27 7.17942L4.21 7.11942C4.02405 6.93368 3.87653 6.71311 3.77588 6.47031C3.67523 6.22752 3.62343 5.96727 3.62343 5.70444C3.62343 5.44162 3.67523 5.18137 3.77588 4.93857C3.87653 4.69578 4.02405 4.47521 4.21 4.28946C4.39575 4.10351 4.61632 3.956 4.85912 3.85535C5.10192 3.7547 5.36217 3.7029 5.625 3.7029C5.88783 3.7029 6.14808 3.7547 6.39088 3.85535C6.63368 3.956 6.85425 4.10351 7.04 4.28946L7.1 4.34946C7.33568 4.58 7.63502 4.73464 7.95941 4.79346C8.28381 4.85228 8.61838 4.81257 8.92 4.67946H9C9.29577 4.5527 9.54802 4.34222 9.72569 4.07393C9.90337 3.80565 9.99872 3.49126 10 3.16948V2.99948C10 2.46906 10.2107 1.96036 10.5858 1.58529C10.9609 1.21022 11.4696 0.999512 12 0.999512C12.5304 0.999512 13.0391 1.21022 13.4142 1.58529C13.7893 1.96036 14 2.46906 14 2.99948V3.08948C14.0013 3.41126 14.0966 3.72565 14.2743 3.99393C14.452 4.26222 14.7042 4.4727 15 4.59946C15.3016 4.73257 15.6362 4.77228 15.9606 4.71346C16.285 4.65464 16.5843 4.5 16.82 4.26946L16.88 4.20947C17.0657 4.02352 17.2863 3.876 17.5291 3.77535C17.7719 3.67471 18.0322 3.6229 18.295 3.6229C18.5578 3.6229 18.8181 3.67471 19.0609 3.77535C19.3037 3.876 19.5243 4.02352 19.71 4.20947C19.896 4.39521 20.0435 4.61578 20.1441 4.85858C20.2448 5.10137 20.2966 5.36162 20.2966 5.62445C20.2966 5.88727 20.2448 6.14752 20.1441 6.39031C20.0435 6.63311 19.896 6.85368 19.71 7.03942L19.65 7.09942C19.4195 7.3351 19.2648 7.63443 19.206 7.95882C19.1472 8.28321 19.1869 8.61779 19.32 8.9194V8.9994C19.4468 9.29516 19.6572 9.54741 19.9255 9.72508C20.1938 9.90275 20.5082 9.9981 20.83 9.99938H21C21.5304 9.99938 22.0391 10.2101 22.4142 10.5852C22.7893 10.9602 23 11.4689 23 11.9994C23 12.5298 22.7893 13.0385 22.4142 13.4135C22.0391 13.7886 21.5304 13.9993 21 13.9993H20.91C20.5882 14.0006 20.2738 14.096 20.0055 14.2736C19.7372 14.4513 19.5268 14.7035 19.4 14.9993V14.9993Z" fill="#CDD2EB" stroke="#CDD2EB" stroke-width="1.5" stroke-linecap="round" stroke-linejoin="round"/>
  <path d="M12 14.9994C13.6569 14.9994 15 13.6562 15 11.9994C15 10.3425 13.6569 8.99939 12 8.99939C10.3431 8.99939 9 10.3425 9 11.9994C9 13.6562 10.3431 14.9994 12 14.9994Z" fill="#425DC7" stroke="#425DC7" stroke-width="1.5" stroke-linecap="round" stroke-linejoin="round"/>
  </g>
  <defs>
  <clipPath id="clip0_701_3999">
  <rect width="24" height="23.9997" fill="white" transform="translate(0 -0.000488281)"/>
  </clipPath>
  </defs>
</svg>
