<svg class="nav__link__icon" width="24" height="24" viewBox="0 0 24 24" fill="none" xmlns="http://www.w3.org/2000/svg">
    <path d="M10.5 3.74915H3.75V10.4991H10.5V3.74915Z" fill="#425DC7" stroke="#425DC7" stroke-width="1.5" stroke-linecap="round" stroke-linejoin="round"/>
    <path d="M20.25 13.4991H13.5V20.2491H20.25V13.4991Z" fill="#425DC7" stroke="#425DC7" stroke-width="1.5" stroke-linecap="round" stroke-linejoin="round"/>
    <path d="M10.5 13.4991H3.75V20.2491H10.5V13.4991Z" fill="#CDD2EB" stroke="#CDD2EB" stroke-width="1.5" stroke-linecap="round" stroke-linejoin="round"/>
    <path fill-rule="evenodd" clip-rule="evenodd" d="M17.8447 10.2522C17.8447 10.6664 17.5089 11.0022 17.0947 11.0022C16.6805 11.0022 16.3447 10.6664 16.3447 10.2522L16.3447 7.74915H14C13.5858 7.74915 13.25 7.41336 13.25 6.99915C13.25 6.58493 13.5858 6.24915 14 6.24915H16.3447L16.3447 3.74915C16.3447 3.33493 16.6805 2.99915 17.0947 2.99915C17.5089 2.99915 17.8447 3.33493 17.8447 3.74915V6.24915H20.5031C20.9173 6.24915 21.2531 6.58493 21.2531 6.99915C21.2531 7.41336 20.9173 7.74915 20.5031 7.74915H17.8447V10.2522Z" fill="#425DC7"/>
</svg>
